<svg width="17" height="20" viewBox="0 0 17 20" fill="none" xmlns="http://www.w3.org/2000/svg">
<path d="M16.1538 0H3.07692C2.26087 0 1.47824 0.324175 0.90121 0.90121C0.324175 1.47824 0 2.26087 0 3.07692V19.2308C0 19.4348 0.0810439 19.6304 0.225303 19.7747C0.369561 19.919 0.565218 20 0.769231 20H14.6154C14.8194 20 15.0151 19.919 15.1593 19.7747C15.3036 19.6304 15.3846 19.4348 15.3846 19.2308C15.3846 19.0268 15.3036 18.8311 15.1593 18.6868C15.0151 18.5426 14.8194 18.4615 14.6154 18.4615H1.53846C1.53846 18.0535 1.70055 17.6622 1.98907 17.3737C2.27758 17.0852 2.6689 16.9231 3.07692 16.9231H16.1538C16.3579 16.9231 16.5535 16.842 16.6978 16.6978C16.842 16.5535 16.9231 16.3579 16.9231 16.1538V0.769231C16.9231 0.565218 16.842 0.369561 16.6978 0.225302C16.5535 0.0810437 16.3579 0 16.1538 0ZM13.8462 9.23077L11.3837 7.38462C11.3171 7.33468 11.2361 7.30769 11.1529 7.30769C11.0697 7.30769 10.9887 7.33468 10.9221 7.38462L8.46154 9.23077V1.53846H13.8462V9.23077Z" fill="#D0D7DD"/>
</svg>
