<svg width="16" height="11" viewBox="0 0 16 11" fill="none" xmlns="http://www.w3.org/2000/svg">
<path d="M8 1.45455C9.33726 1.4501 10.6486 1.82312 11.7834 2.53071C12.9181 3.2383 13.8301 4.25175 14.4145 5.45455C13.2145 7.90545 10.7636 9.45455 8 9.45455C5.23636 9.45455 2.78545 7.90545 1.58545 5.45455C2.1699 4.25175 3.08191 3.2383 4.21664 2.53071C5.35136 1.82312 6.66274 1.4501 8 1.45455ZM8 0C4.36364 0 1.25818 2.26182 0 5.45455C1.25818 8.64727 4.36364 10.9091 8 10.9091C11.6364 10.9091 14.7418 8.64727 16 5.45455C14.7418 2.26182 11.6364 0 8 0ZM8 3.63636C8.48221 3.63636 8.94467 3.82792 9.28565 4.1689C9.62662 4.50987 9.81818 4.97233 9.81818 5.45455C9.81818 5.93676 9.62662 6.39922 9.28565 6.74019C8.94467 7.08117 8.48221 7.27273 8 7.27273C7.51779 7.27273 7.05533 7.08117 6.71435 6.74019C6.37338 6.39922 6.18182 5.93676 6.18182 5.45455C6.18182 4.97233 6.37338 4.50987 6.71435 4.1689C7.05533 3.82792 7.51779 3.63636 8 3.63636ZM8 2.18182C6.19636 2.18182 4.72727 3.65091 4.72727 5.45455C4.72727 7.25818 6.19636 8.72727 8 8.72727C9.80364 8.72727 11.2727 7.25818 11.2727 5.45455C11.2727 3.65091 9.80364 2.18182 8 2.18182Z" fill="#761713"/>
</svg>
