<svg width="18" height="18" viewBox="0 0 18 18" fill="none" xmlns="http://www.w3.org/2000/svg">
<path d="M17.9077 16.9648C17.8469 17.0701 17.7595 17.1575 17.6542 17.2183C17.5489 17.279 17.4295 17.311 17.3079 17.311H0.691636C0.570164 17.3109 0.450863 17.2788 0.345712 17.218C0.240561 17.1572 0.153261 17.0697 0.0925793 16.9645C0.0318973 16.8593 -3.11627e-05 16.7399 2.2823e-08 16.6185C3.12083e-05 16.497 0.0320209 16.3777 0.0927569 16.2725C1.41081 13.9938 3.44198 12.3599 5.8124 11.5853C4.63988 10.8873 3.72891 9.82369 3.21938 8.55784C2.70985 7.29198 2.62993 5.89387 2.9919 4.5782C3.35387 3.26253 4.13772 2.10206 5.22306 1.27499C6.3084 0.447927 7.63523 0 8.99978 0C10.3643 0 11.6912 0.447927 12.7765 1.27499C13.8619 2.10206 14.6457 3.26253 15.0077 4.5782C15.3696 5.89387 15.2897 7.29198 14.7802 8.55784C14.2707 9.82369 13.3597 10.8873 12.1872 11.5853C14.5576 12.3599 16.5888 13.9938 17.9068 16.2725C17.9677 16.3777 17.9998 16.497 18 16.6185C18.0002 16.7401 17.9683 16.8595 17.9077 16.9648Z" fill="#D0D7DD"/>
</svg>
